<svg viewBox="0 0 42 34" width="100" height="85" shape-rendering="crispEdges" xmlns="http://www.w3.org/2000/svg">
    <!-- Fill -->
    <path fill="var(--glass-bg)" d="M16,0 h2 v2 h-2 z M18,0 h2 v2 h-2 z M22,0 h2 v2 h-2 z M24,0 h2 v2 h-2 z M16,2 h2 v2 h-2 z M24,2 h2 v2 h-2 z M14,10 h2 v2 h-2 z M30,10 h2 v2 h-2 z M14,12 h2 v2 h-2 z M30,12 h2 v2 h-2 z M14,14 h2 v2 h-2 z M30,14 h2 v2 h-2 z M14,16 h2 v2 h-2 z M30,16 h2 v2 h-2 z M14,18 h2 v2 h-2 z M26,18 h2 v2 h-2 z M30,18 h2 v2 h-2 z M12,20 h2 v2 h-2 z M28,20 h2 v2 h-2 z M36,20 h2 v2 h-2 z M38,20 h2 v2 h-2 z M12,22 h2 v2 h-2 z M28,22 h2 v2 h-2 z M34,22 h2 v2 h-2 z M40,22 h2 v2 h-2 z M10,24 h2 v2 h-2 z M30,24 h2 v2 h-2 z M34,24 h2 v2 h-2 z M40,24 h2 v2 h-2 z M10,26 h2 v2 h-2 z M30,26 h2 v2 h-2 z M34,26 h2 v2 h-2 z M40,26 h2 v2 h-2 z M10,28 h2 v2 h-2 z M30,28 h2 v2 h-2 z M34,28 h2 v2 h-2 z M40,28 h2 v2 h-2 z M10,30 h2 v2 h-2 z M16,30 h2 v2 h-2 z M24,30 h2 v2 h-2 z M30,30 h2 v2 h-2 z M34,30 h2 v2 h-2 z M40,30 h2 v2 h-2 z" />
    <!-- Outline -->
    <path fill="var(--text-main)" d="M14,0 h2 v2 h-2 z M16,0 h2 v2 h-2 z M24,0 h2 v2 h-2 z M26,0 h2 v2 h-2 z M12,2 h2 v2 h-2 z M18,2 h2 v2 h-2 z M22,2 h2 v2 h-2 z M28,2 h2 v2 h-2 z M8,4 h2 v2 h-2 z M10,4 h2 v2 h-2 z M14,4 h2 v2 h-2 z M16,4 h2 v2 h-2 z M18,4 h2 v2 h-2 z M20,4 h2 v2 h-2 z M22,4 h2 v2 h-2 z M24,4 h2 v2 h-2 z M26,4 h2 v2 h-2 z M30,4 h2 v2 h-2 z M32,4 h2 v2 h-2 z M6,6 h2 v2 h-2 z M14,6 h2 v2 h-2 z M16,6 h2 v2 h-2 z M18,6 h2 v2 h-2 z M20,6 h2 v2 h-2 z M22,6 h2 v2 h-2 z M24,6 h2 v2 h-2 z M26,6 h2 v2 h-2 z M34,6 h2 v2 h-2 z M6,8 h2 v2 h-2 z M14,8 h2 v2 h-2 z M16,8 h2 v2 h-2 z M18,8 h2 v2 h-2 z M20,8 h2 v2 h-2 z M22,8 h2 v2 h-2 z M24,8 h2 v2 h-2 z M26,8 h2 v2 h-2 z M34,8 h2 v2 h-2 z M8,10 h2 v2 h-2 z M10,10 h2 v2 h-2 z M14,10 h2 v2 h-2 z M20,10 h2 v2 h-2 z M26,10 h2 v2 h-2 z M30,10 h2 v2 h-2 z M32,10 h2 v2 h-2 z M12,12 h2 v2 h-2 z M20,12 h2 v2 h-2 z M28,12 h2 v2 h-2 z M12,14 h2 v2 h-2 z M18,14 h2 v2 h-2 z M22,14 h2 v2 h-2 z M28,14 h2 v2 h-2 z M12,16 h2 v2 h-2 z M18,16 h2 v2 h-2 z M20,16 h2 v2 h-2 z M22,16 h2 v2 h-2 z M28,16 h2 v2 h-2 z M14,18 h2 v2 h-2 z M16,18 h2 v2 h-2 z M18,18 h2 v2 h-2 z M20,18 h2 v2 h-2 z M22,18 h2 v2 h-2 z M24,18 h2 v2 h-2 z M26,18 h2 v2 h-2 z M12,20 h2 v2 h-2 z M28,20 h2 v2 h-2 z M12,22 h2 v2 h-2 z M28,22 h2 v2 h-2 z M36,22 h2 v2 h-2 z M38,22 h2 v2 h-2 z M10,24 h2 v2 h-2 z M30,24 h2 v2 h-2 z M34,24 h2 v2 h-2 z M40,24 h2 v2 h-2 z M10,26 h2 v2 h-2 z M30,26 h2 v2 h-2 z M34,26 h2 v2 h-2 z M40,26 h2 v2 h-2 z M10,28 h2 v2 h-2 z M14,28 h2 v2 h-2 z M16,28 h2 v2 h-2 z M24,28 h2 v2 h-2 z M26,28 h2 v2 h-2 z M30,28 h2 v2 h-2 z M34,28 h2 v2 h-2 z M40,28 h2 v2 h-2 z M10,30 h2 v2 h-2 z M14,30 h2 v2 h-2 z M16,30 h2 v2 h-2 z M24,30 h2 v2 h-2 z M26,30 h2 v2 h-2 z M30,30 h2 v2 h-2 z M34,30 h2 v2 h-2 z M40,30 h2 v2 h-2 z M12,32 h2 v2 h-2 z M18,32 h2 v2 h-2 z M20,32 h2 v2 h-2 z M22,32 h2 v2 h-2 z M28,32 h2 v2 h-2 z M36,32 h2 v2 h-2 z M38,32 h2 v2 h-2 z" />
    <!-- Sunglasses -->
    <path fill="#000" d="M14,4 h2 v2 h-2 z M16,4 h2 v2 h-2 z M18,4 h2 v2 h-2 z M20,4 h2 v2 h-2 z M22,4 h2 v2 h-2 z M24,4 h2 v2 h-2 z M26,4 h2 v2 h-2 z M14,6 h2 v2 h-2 z M16,6 h2 v2 h-2 z M18,6 h2 v2 h-2 z M20,6 h2 v2 h-2 z M22,6 h2 v2 h-2 z M24,6 h2 v2 h-2 z M26,6 h2 v2 h-2 z M14,8 h2 v2 h-2 z M16,8 h2 v2 h-2 z M18,8 h2 v2 h-2 z M20,8 h2 v2 h-2 z M22,8 h2 v2 h-2 z M24,8 h2 v2 h-2 z M26,8 h2 v2 h-2 z" />
</svg>